<?xml version="1.0" encoding="UTF-8" standalone="no"?>
<svg
   xmlns:dc="http://purl.org/dc/elements/1.1/"
   xmlns:cc="http://creativecommons.org/ns#"
   xmlns:rdf="http://www.w3.org/1999/02/22-rdf-syntax-ns#"
   xmlns:svg="http://www.w3.org/2000/svg"
   xmlns="http://www.w3.org/2000/svg"
   xmlns:xlink="http://www.w3.org/1999/xlink"
   height="131px"
   width="600px"
   xml:space="preserve"
   style="enable-background:new 0 0 389.8 85.2;"
   viewBox="0 0 389.8 85.2"
   y="0px"
   x="0px"
   id="Ebene_1"
   version="1.1"><metadata
     id="metadata29"><rdf:RDF><cc:Work
         rdf:about=""><dc:format>image/svg+xml</dc:format><dc:type
           rdf:resource="http://purl.org/dc/dcmitype/StillImage" /><dc:title></dc:title></cc:Work></rdf:RDF></metadata><defs
     id="defs27" /><style
     id="style2"
     type="text/css">
	.st0{clip-path:url(#SVGID_2_);}
	.st1{clip-path:url(#SVGID_2_);fill:#FFFFFF;}
</style><g
     id="g22"><defs
       id="defs5"><rect
         height="85.2"
         width="389.8"
         id="SVGID_1_" /></defs><clipPath
       id="SVGID_2_"><use
         id="use7"
         style="overflow:visible;"
         xlink:href="#SVGID_1_" /></clipPath><path
       id="path10"
       clip-path="url(#SVGID_2_)"
       d="M320.4,67.3v15.4c5.6-3.8,11.3-7.6,17.3-11.3C333.3,70.3,327.5,68.9,320.4,67.3"
       class="st0" /><path
       id="path12"
       clip-path="url(#SVGID_2_)"
       d="M389.8,85.2c-5.8-6.1-18.9-20.1-20.4-21.7c-0.6-0.6-0.6-1.4,0-2.1l20.4-21.7H345v17.6c0,0.1,0,0.1,0,0.2v13   c0,0.6-0.4,1.1-1.1,1.5c-0.1,0-0.2,0.1-0.3,0.1c-0.1,0.1-0.2,0.2-0.3,0.3c-6.6,4.2-13.1,8.4-19.3,12.6H389.8z"
       class="st0" /><path
       id="path14"
       clip-path="url(#SVGID_2_)"
       d="M69.4,82.7V67.3c-7.1,1.5-12.9,2.9-17.2,4C58,75.1,63.8,78.9,69.4,82.7"
       class="st0" /><path
       id="path16"
       clip-path="url(#SVGID_2_)"
       d="M20.4,63.5C18.9,65.1,5.8,79.1,0,85.2h65.7c-6.2-4.2-12.7-8.5-19.3-12.6c-0.1-0.1-0.2-0.2-0.3-0.3   c-0.1,0-0.2-0.1-0.3-0.1c-0.7-0.3-1.1-0.9-1.1-1.5v-13c0-0.1,0-0.1,0-0.2V39.8H0l20.4,21.7C21,62.1,21,62.9,20.4,63.5"
       class="st0" /><path
       id="path18"
       clip-path="url(#SVGID_2_)"
       d="M49.2,69c7-1.8,19.5-4.9,36.2-8.1h218.9c16.8,3.2,29.3,6.3,36.2,8.1V56h0V8.9l-4.7-1.4   c-0.4-0.1-9.1-2.7-24.4-6.1l-5.7-1.2c-1.2-0.2-3.5,0-3.5,0H87.7c0,0-2.4-0.2-3.5,0l-8,1.7C62.2,5,54.3,7.3,53.9,7.4l-4.7,1.4V56h0   V69z"
       class="st0" /></g></svg>