<?xml version="1.0" encoding="UTF-8" standalone="no"?>
<svg
   xmlns:dc="http://purl.org/dc/elements/1.1/"
   xmlns:cc="http://creativecommons.org/ns#"
   xmlns:rdf="http://www.w3.org/1999/02/22-rdf-syntax-ns#"
   xmlns:svg="http://www.w3.org/2000/svg"
   xmlns="http://www.w3.org/2000/svg"
   height="200px"
   width="200px"
   xml:space="preserve"
   style="enable-background:new 0 0 191.9 191.9;"
   viewBox="0 0 191.9 191.9"
   y="0px"
   x="0px"
   id="Ebene_1"
   version="1.1"><metadata
     id="metadata105"><rdf:RDF><cc:Work
         rdf:about=""><dc:format>image/svg+xml</dc:format><dc:type
           rdf:resource="http://purl.org/dc/dcmitype/StillImage" /><dc:title></dc:title></cc:Work></rdf:RDF></metadata><defs
     id="defs103" /><style
     id="style2"
     type="text/css">
	.st0{fill:#373636;}
</style><g
     id="g98"><g
       id="g8"><g
         id="g6"><path
           id="path4"
           d="M82.5,40.6C51.9,48,33.1,78.9,40.6,109.5c7.5,30.6,38.3,49.3,68.9,41.9c30.6-7.5,49.3-38.3,41.9-68.9     C143.9,51.9,113.1,33.1,82.5,40.6z M108.1,144.3c-27,6.6-54.2-10-60.7-36.9c-6.6-27,10-54.2,36.9-60.7c27-6.6,54.2,10,60.7,36.9     C151.6,110.5,135.1,137.7,108.1,144.3z"
           class="st0" /></g></g><g
       id="g14"><g
         id="g12"><path
           id="path10"
           d="M73.2,2.7C21.7,15.3-9.8,67.2,2.7,118.7c12.6,51.5,64.5,83.1,116,70.5c51.5-12.6,83.1-64.5,70.5-116     C176.7,21.7,124.7-9.8,73.2,2.7z M116.4,177.2c-45.4,11.1-91.2-16.8-102.2-62.2C3.1,69.7,31,23.9,76.4,12.8     C121.8,1.8,167.5,29.6,178.6,75C189.7,120.4,161.8,166.2,116.4,177.2z"
           class="st0" /></g></g><g
       id="g88"><path
         id="path86"
         d="M160.4,126.1c0,0,0.1-0.1,0.2-0.4c-0.5-1.2-1.1-3.2-0.5-6c1-2.8,1.5-1.8,1.8-2.7c0.2-0.9-0.7,2.3,0.4,5.2    c0.3-0.8,0.7-1.8,1.1-2.8c-0.6-1.1-1.3-2.9-1.2-5.5c0.6-3,1.2-2.1,1.4-3.1c0.1-0.9-0.3,2.3,1,4.8c0.2-0.8,0.4-1.7,0.6-2.6    c-0.8-0.9-1.6-2.5-1.8-5.1c0.2-3.2,0.9-2.4,0.9-3.4c0-0.9,0,2.3,1.6,4.5c0.2-1.1,0.3-2.3,0.4-3.5c-0.9-0.7-2-2.1-2.5-4.8    c-0.1-3.2,0.6-2.6,0.5-3.6c-0.1-0.9,0.3,2.5,2.2,4.3c0-1.1,0-2.1,0-3.3c-1-0.5-2.3-1.7-3.2-4.3c-0.5-3.1,0.3-2.7,0.1-3.6    c-0.2-0.9,0.6,2.6,2.9,3.9c-0.1-1.2-0.2-2.4-0.4-3.7c-1-0.2-2.4-1-3.7-3.2c-1.1-2.9-0.2-2.8-0.6-3.6c-0.4-0.8,1.1,2.4,3.5,2.9    c0,0,0.1,0.1,0.1,0.1c-0.3-1.4-0.6-2.9-1-4.4c-1-0.1-2.5-0.8-3.9-3c-1.2-2.8-0.3-2.7-0.7-3.6c-0.4-0.8,1.1,2.2,3.5,2.7    c-0.3-1-0.6-2-1-3c-1,0-2.5-0.4-4-2.4c-1.4-2.6-0.5-2.7-1-3.4c-0.5-0.7,1.4,2.2,3.8,2.1c0.1,0.2,0.3,0.4,0.4,0.6    c-0.1-0.3-0.2-0.6-0.2-0.8c1.1-2.9-0.1-6.4,0.2-5.5c0.3,0.9,0.7-0.1,1.9,2.7c0.9,3.6-0.1,6-0.6,6.8c0.3,0.9,0.6,1.7,0.9,2.6    c1.3-2.7,0.4-6.2,0.7-5.2c0.2,0.9,0.7,0,1.7,3c0.6,3.6-0.6,5.7-1.1,6.5c0.3,1.2,0.6,2.4,0.8,3.6c1.2-2.6,0.5-5.8,0.7-4.9    c0.2,1,0.7,0,1.6,3.1c0.5,3.8-0.9,5.9-1.5,6.6c0.1,1.1,0.3,2.1,0.3,3.2c1.8-2.1,1.7-5.6,1.7-4.7c0,1,0.7,0.3,1,3.5    c-0.2,3.5-1.7,5.1-2.5,5.7c0,1.2,0,2.3,0,3.4c0-0.1,0-0.1,0-0.2c2.1-1.6,2.5-5.3,2.4-4.3c-0.1,1,0.7,0.4,0.6,3.6    c-0.7,3.7-2.5,4.8-3.3,5.1c-0.1,1.3-0.3,2.6-0.5,3.9c0,0.1,0,0.2,0,0.3c0.1-0.3,0.2-0.6,0.2-0.8c2.3-1.1,3.1-4.7,2.9-3.8    c-0.2,0.9,0.6,0.6,0.1,3.7c-1.2,3.7-3.4,4.3-4,4.4c-0.2,1-0.5,2-0.8,3c0,0.1,0,0.1,0,0.2c0.1-0.3,0.2-0.5,0.3-0.7    c2.4-0.6,3.7-3.9,3.3-3c-0.3,0.8,0.5,0.7-0.3,3.6c-1.5,3.2-3.7,3.4-4.4,3.4c-0.3,0.9-0.6,1.7-0.9,2.5c2.5,0,4.1-2.9,3.7-2.1    c-0.4,0.7,0.4,0.8-0.8,3.4c-1.8,2.5-3.7,2.5-4.6,2.3c-0.2,0.4-0.4,0.7-0.4,0.7l-0.4-0.4C160.2,126.5,160.3,126.4,160.4,126.1    C160.4,126.1,160.4,126.1,160.4,126.1z"
         class="st0" /></g><g
       id="g92"><path
         id="path90"
         d="M53.2,151.2c0,0-0.2-0.1-0.4-0.2c-0.1-1.3-0.6-3.3-2.4-5.5c-2.3-2-2.2-0.8-2.9-1.5c-0.6-0.7,1.7,1.7,2.2,4.7    c-0.7-0.5-1.5-1.2-2.3-1.9c0-1.2-0.2-3.1-1.6-5.4c-2-2.4-2.1-1.3-2.7-2.1c-0.5-0.7,1.4,1.8,1.5,4.7c-0.6-0.6-1.2-1.3-1.8-2    c0.2-1.2,0.2-3-0.9-5.3c-1.7-2.6-2-1.7-2.5-2.5c-0.4-0.8,1.2,2,0.8,4.7c-0.7-0.9-1.4-1.8-2-2.8c0.4-1.1,0.7-2.8-0.2-5.4    c-1.4-2.9-1.8-2-2.2-2.9c-0.3-0.9,1,2.3,0.2,4.8c-0.5-0.9-1.1-1.9-1.6-2.8c0.6-0.9,1.2-2.6,0.7-5.3c-1.1-3-1.6-2.2-1.8-3.1    c-0.2-0.9,0.7,2.6-0.6,4.8c-0.5-1.1-1-2.2-1.4-3.4c0.8-0.7,1.6-2,1.6-4.6c-0.5-3-1.2-2.5-1.2-3.4c-0.1-0.9,0.2,2.6-1.7,4.3    c0,0,0,0.1,0,0.2c-0.5-1.4-0.9-2.8-1.3-4.3c0.8-0.6,1.8-1.9,1.9-4.5c-0.4-3-1.1-2.5-1.1-3.5c0-0.9,0.1,2.5-1.7,4    c-0.2-1-0.4-2.1-0.6-3.1c0.9-0.5,2-1.6,2.3-4c0-3-0.9-2.6-0.8-3.5c0.1-0.9-0.1,2.6-2.3,3.7c0,0.2-0.1,0.5-0.1,0.8    c-0.1-0.3-0.1-0.6-0.2-0.8c-2.4-2-3-5.6-2.8-4.7c0.2,0.9-0.7,0.3-0.4,3.3c1,3.6,3,5.2,3.8,5.6c0.2,0.9,0.3,1.8,0.5,2.7    c-2.4-1.7-3.4-5.2-3.1-4.3c0.3,0.9-0.6,0.4,0,3.4c1.2,3.4,3.2,4.7,4.2,5.1c0.3,1.2,0.7,2.4,1,3.5c-2.3-1.7-3.3-4.8-3-3.9    c0.3,0.9-0.6,0.4,0.1,3.4c1.4,3.6,3.7,4.7,4.5,5c0.4,1,0.8,2,1.3,3c-2.5-1-4.2-4.1-3.8-3.2c0.5,0.9-0.5,0.6,0.8,3.5    c1.9,3,3.9,3.6,4.9,3.8c0.5,1,1.1,2,1.7,3c0-0.1-0.1-0.1-0.1-0.2c-2.6-0.4-4.8-3.4-4.2-2.6c0.6,0.8-0.4,0.7,1.3,3.4    c2.3,2.9,4.5,3,5.4,2.9c0.8,1.1,1.5,2.2,2.3,3.1c0,0.1,0.1,0.2,0.1,0.3c-0.2-0.2-0.4-0.4-0.6-0.6c-2.6,0.1-5-2.6-4.4-1.9    c0.6,0.7-0.3,0.8,1.7,3.3c2.8,2.7,5,2.1,5.6,1.9c0.7,0.8,1.4,1.5,2.1,2.2c0,0.1,0.1,0.1,0.1,0.2c-0.2-0.2-0.5-0.4-0.7-0.5    c-2.4,0.7-5.1-1.6-4.4-1c0.7,0.6-0.1,0.9,2,3c2.9,2,4.9,1.2,5.5,0.8c0.7,0.6,1.4,1.2,2,1.7c-2.2,1.2-5-0.5-4.3-0.1    c0.8,0.4,0,0.9,2.4,2.6c2.7,1.3,4.4,0.4,5.1-0.2c0.4,0.3,0.7,0.4,0.7,0.4l0.1-0.5C53.5,151.5,53.4,151.4,53.2,151.2    C53.1,151.2,53.2,151.2,53.2,151.2z"
         class="st0" /></g><g
       id="g96"><path
         id="path94"
         d="M106.3,125.7l-5.7,1.4L89.7,82.3l-2.3,0.6l-5.9,1.4l-4.9,1.2l-2.5,0.6l-1-4.1c12.2-3.2,14.4-5.6,14.2-15.3    l4.3-1.1L106.3,125.7z"
         class="st0" /></g></g></svg>