<?xml version="1.0" encoding="UTF-8" standalone="no"?>
<!DOCTYPE svg PUBLIC "-//W3C//DTD SVG 1.1//EN" "http://www.w3.org/Graphics/SVG/1.1/DTD/svg11.dtd">
<!--Generated by Intaglio, www.PurgatoryDesign.com-->
<svg version="1.1" viewBox="43,99,396,291" width="396" height="291" xmlns="http://www.w3.org/2000/svg" xmlns:xlink="http://www.w3.org/1999/xlink"><path fill="#ffeb9d" d="M43.4296,99.4678 L438.499,99.4678 L438.499,389.55 L43.4296,389.55 L43.4296,99.4678 Z"/><path fill="#9a0009" d="M177.975,223.308 L173.331,223.308 C172.643,221.645,172.299,219.954,172.299,218.234 C172.299,216.513,172.628,215.309,173.288,214.621 C173.947,213.933,175.022,213.589,176.513,213.589 L199.047,213.589 C199.792,215.195,200.165,216.915,200.165,218.75 C200.165,220.527,199.792,221.731,199.047,222.362 C198.301,222.993,197.011,223.308,195.176,223.308 L193.8,223.308 C191.679,229.099,187.278,241.943,180.598,261.839 C173.918,281.735,169.589,293.002,167.611,295.64 C165.633,298.277,162.551,299.596,158.366,299.596 C151.542,299.596,147.887,299.281,147.4,298.65 C146.912,298.019,143.529,287.87,137.251,268.203 C130.972,248.537,127.145,236.883,125.769,233.242 C124.393,229.601,123.246,227.006,122.329,225.458 C121.411,223.91,120.379,222.95,119.232,222.577 C118.086,222.204,116.509,222.018,114.502,222.018 C113.757,220.183,113.384,218.463,113.384,216.857 C113.384,215.137,114.287,214.019,116.093,213.503 C117.899,212.987,122.873,212.729,131.015,212.729 C134.57,212.729,137.036,213.016,138.412,213.589 C139.788,214.163,140.834,215.166,141.551,216.599 C142.268,218.033,143.128,221.401,144.131,226.705 C145.135,232.009,148.03,242.946,152.818,259.517 C157.606,276.087,160.272,284.373,160.817,284.373 C161.361,284.373,164.171,275.7,169.245,258.356 C174.32,241.011,177.23,229.328,177.975,223.308 Z"/><path fill="#9a0009" d="M112.764,361.043 C110.01,359.23,108.505,356.235,108.248,352.057 C107.83,345.247,107.921,341.579,108.521,341.054 C109.121,340.529,119.043,336.531,138.289,329.059 C157.534,321.588,374.533,305.927,378.083,304.331 C381.633,302.734,384.152,301.431,385.641,300.42 C387.13,299.41,388.026,298.321,388.328,297.153 C388.629,295.986,388.719,294.401,388.596,292.398 C390.382,291.541,392.076,291.064,393.678,290.966 C395.395,290.86,396.566,291.693,397.192,293.464 C397.818,295.235,398.38,300.184,398.879,308.311 C399.096,311.859,398.961,314.338,398.473,315.746 C397.985,317.155,397.048,318.261,395.661,319.064 C394.274,319.867,390.964,320.932,385.732,322.258 C380.5,323.585,164.159,338.271,147.913,344.065 C131.666,349.859,123.56,353.027,123.593,353.571 C123.627,354.115,115.517,362.856,112.764,361.043 Z"/><path fill="#9a0009" d="M76.5655,188.801 C73.8117,186.988,72.3066,183.993,72.0502,179.815 C71.6323,173.004,71.7232,169.337,72.3228,168.812 C72.9225,168.287,82.8451,164.288,102.09,156.817 C121.336,149.346,338.335,133.685,341.885,132.089 C345.435,130.492,347.954,129.189,349.443,128.178 C350.932,127.168,351.828,126.079,352.129,124.911 C352.431,123.744,352.521,122.158,352.398,120.155 C354.183,119.299,355.877,118.822,357.48,118.723 C359.197,118.618,360.368,119.451,360.994,121.222 C361.619,122.993,362.182,127.942,362.68,136.069 C362.898,139.617,362.763,142.095,362.275,143.504 C361.787,144.913,360.85,146.019,359.463,146.822 C358.076,147.625,354.766,148.69,349.534,150.016 C344.302,151.343,127.961,166.029,111.714,171.823 C95.4681,177.617,87.3616,180.785,87.395,181.329 C87.4284,181.873,79.3192,190.614,76.5655,188.801 Z"/><path fill="#9a0009" d="M237.348,191.103 C233.621,191.103,230.868,190.329,229.091,188.781 C227.314,187.233,226.425,184.996,226.425,182.072 C226.482,178.919,227.629,176.396,229.865,174.504 C232.101,172.611,235.255,171.665,239.326,171.665 C243.339,171.665,246.206,172.482,247.926,174.116 C249.647,175.751,250.507,177.944,250.507,180.696 C250.507,183.792,249.446,186.301,247.324,188.222 C245.203,190.142,241.877,191.103,237.348,191.103 Z M249.561,282.098 L258.677,282.098 C259.423,283.589,259.795,285.194,259.795,286.914 C259.795,288.463,259.48,289.523,258.849,290.097 C258.219,290.67,256.986,290.957,255.151,290.957 L221.35,290.957 C220.662,289.122,220.318,287.402,220.318,285.796 C220.318,284.535,220.619,283.603,221.221,283.001 C221.823,282.399,222.87,282.098,224.361,282.098 L230.725,282.098 C231.126,274.128,231.327,264.782,231.327,254.06 C231.327,240.987,231.227,232.257,231.026,227.871 C230.825,223.484,230.352,220.46,229.607,218.797 C228.862,217.134,227.815,216.102,226.468,215.701 C225.12,215.299,223.443,215.099,221.436,215.099 C220.691,213.895,220.318,212.49,220.318,210.884 C220.318,208.534,221.436,207.1,223.673,206.584 C225.909,206.068,230.238,205.81,236.66,205.81 C241.189,205.81,244.257,206.025,245.862,206.455 C247.468,206.885,248.385,207.688,248.615,208.863 C248.844,210.039,248.959,212.06,248.959,214.927 L248.959,254.06 C248.959,264.782,249.159,274.128,249.561,282.098 Z"/><path fill="#9a0009" d="M331.233,275.022 C326.417,277.832,321.471,279.968,316.397,281.43 C311.323,282.892,306.349,283.623,301.475,283.623 C293.734,283.623,287.972,281.802,284.187,278.161 C280.403,274.52,278.511,269.116,278.511,261.949 C278.511,253.176,281.636,246.468,287.886,241.824 C294.136,237.179,303.797,234.857,316.87,234.857 L329.513,234.857 C329.169,224.765,327.721,217.742,325.17,213.785 C322.618,209.829,318.103,207.851,311.624,207.851 C308.183,207.851,304.886,208.195,301.733,208.883 C300.07,212.208,299.081,213.986,298.766,214.215 C298.45,214.445,296.802,214.946,293.82,215.72 C290.839,216.494,288.76,216.351,287.585,215.29 C286.409,214.23,285.205,212.294,283.972,209.485 C282.74,206.675,282.123,204.411,282.123,202.69 C282.123,201.544,282.596,200.655,283.542,200.024 C284.489,199.393,288.344,198.619,295.11,197.702 C301.876,196.785,309.072,196.326,316.698,196.326 C326.847,196.326,334.344,198.075,339.189,201.572 C344.034,205.07,346.456,211.492,346.456,220.838 L346.456,247.328 C346.456,259.598,346.987,267.081,348.048,269.776 C349.108,272.471,350.871,273.56,353.337,273.044 C354.025,274.305,354.369,275.538,354.369,276.742 C354.369,278.692,353.151,280.183,350.714,281.215 C348.277,282.247,344.994,282.763,340.866,282.763 C338.859,282.763,337.325,282.519,336.265,282.032 C335.204,281.544,333.527,279.208,331.233,275.022 Z M329.513,245.952 C324.582,245.092,319.479,244.662,314.204,244.662 C307.667,244.662,303.095,245.751,300.486,247.93 C297.877,250.109,296.572,253.549,296.572,258.251 C296.572,262.838,297.734,266.292,300.056,268.615 C302.378,270.937,305.976,272.098,310.85,272.098 C314.634,272.098,318.16,271.353,321.428,269.862 C324.697,268.371,326.861,266.292,327.922,263.626 C328.983,260.96,329.513,256.76,329.513,251.026 Z"/></svg>
